<?xml version="1.0" encoding="utf-8"?>
<!-- Generator: Adobe Illustrator 16.0.0, SVG Export Plug-In . SVG Version: 6.00 Build 0)  -->
<!DOCTYPE svg PUBLIC "-//W3C//DTD SVG 1.1//EN" "http://www.w3.org/Graphics/SVG/1.1/DTD/svg11.dtd">
<svg version="1.1" id="Capa_1" xmlns="http://www.w3.org/2000/svg" xmlns:xlink="http://www.w3.org/1999/xlink" x="0px" y="0px"
	 width="560px" height="559.998px" viewBox="200 0 560 559.998" enable-background="new 200 0 560 559.998" xml:space="preserve">
<g>
	<path fill="#E6000F" d="M664.277,182.992c-7.438,0-13.471,6.033-13.471,13.471v336.593H226.942V109.193h329.572
		c7.441,0,13.472-6.033,13.472-13.471c0-7.438-6.03-13.471-13.472-13.471H213.471c-7.438,0-13.471,6.033-13.471,13.471v450.804
		c0,7.438,6.033,13.472,13.471,13.472h450.806c7.438,0,13.471-6.033,13.471-13.472V196.463
		C677.748,189.025,671.716,182.992,664.277,182.992z"/>
	<path fill="#E6000F" d="M756.053,3.947c-5.26-5.261-13.789-5.265-19.05,0L380.547,360.4l-88.443-88.444
		c-5.261-5.263-13.792-5.263-19.05,0c-5.26,5.261-5.26,13.79,0,19.048l97.97,97.97c2.629,2.632,6.078,3.947,9.526,3.947
		s6.895-1.315,9.526-3.947L756.053,22.997C761.315,17.737,761.315,9.208,756.053,3.947z"/>
</g>
</svg>
