<?xml version="1.0" encoding="utf-8"?>
<!-- Generator: Adobe Illustrator 16.0.0, SVG Export Plug-In . SVG Version: 6.00 Build 0)  -->
<!DOCTYPE svg PUBLIC "-//W3C//DTD SVG 1.1//EN" "http://www.w3.org/Graphics/SVG/1.1/DTD/svg11.dtd">
<svg version="1.1" id="Layer_1" xmlns="http://www.w3.org/2000/svg" xmlns:xlink="http://www.w3.org/1999/xlink" x="0px" y="0px"
	 width="25px" height="18px" viewBox="0 0 25 18" enable-background="new 0 0 25 18" xml:space="preserve">
<g>
	<g>
		<path fill="none" stroke="#FFFFFF" stroke-linecap="round" stroke-linejoin="round" stroke-miterlimit="10" d="M22.947,13.184
			V1.31c0-0.462-0.34-0.81-0.791-0.81H2.877c-0.452,0-0.793,0.348-0.793,0.81v11.604"/>
		<path fill="none" stroke="#FFFFFF" stroke-linecap="round" stroke-linejoin="round" stroke-miterlimit="10" d="M13.736,14.809
			v0.265c0,0.265-0.271,0.538-0.527,0.538h-1.584c-0.26,0-0.529-0.273-0.529-0.538v-0.271L0.5,14.809v1.766
			c0,0.484,0.316,0.928,0.793,0.928H23.74c0.477,0,0.76-0.439,0.76-0.928v-1.766H13.736z"/>
	</g>
	<path fill="none" stroke="#FFFFFF" stroke-linecap="round" stroke-linejoin="round" stroke-miterlimit="10" d="M16.146,10.141
		c-1.266-0.492-2.666-1.101-2.785-1.48V8.261c0.262-0.27,0.469-0.646,0.592-1.087c0.291-0.205,0.367-0.633,0.123-0.935V5.347
		c0-0.921-0.494-1.608-1.66-1.608c-1.135,0-1.691,0.688-1.691,1.608V6.24c-0.244,0.299-0.17,0.727,0.123,0.934
		c0.121,0.441,0.328,0.817,0.592,1.087v0.397c-0.12,0.382-1.522,0.99-2.786,1.482c-0.107,0.041-0.199,0.228-0.199,0.344v1.08
		c0,0.156,0.111,0.27,0.264,0.27h7.396c0.152,0,0.266-0.382,0.266-0.539v-0.811C16.379,10.367,16.254,10.182,16.146,10.141z"/>
</g>
</svg>
