<?xml version="1.0" encoding="utf-8"?>
<!-- Generator: Adobe Illustrator 16.0.0, SVG Export Plug-In . SVG Version: 6.00 Build 0)  -->
<!DOCTYPE svg PUBLIC "-//W3C//DTD SVG 1.1//EN" "http://www.w3.org/Graphics/SVG/1.1/DTD/svg11.dtd">
<svg version="1.1" id="Layer_1" xmlns="http://www.w3.org/2000/svg" xmlns:xlink="http://www.w3.org/1999/xlink" x="0px" y="0px"
	 width="80px" height="28px" viewBox="0 0 80 28" enable-background="new 0 0 80 28" xml:space="preserve">
<g>
	<path fill="#E5E7EB" d="M80,14c0,7.7-6.3,14-14,14H14C6.3,28,0,21.7,0,14l0,0C0,6.3,6.3,0,14,0h52C73.7,0,80,6.3,80,14L80,14z"/>
</g>
<g>
	<path fill="#3A3E42" d="M17.219,14.19h-2.684v2.262h3.176v1.43h-4.898V9.351h4.887v1.436h-3.164v2.016h2.684V14.19z"/>
	<path fill="#3A3E42" d="M21.602,14.917h-2.865v-1.383h2.865V14.917z"/>
	<path fill="#3A3E42" d="M23.061,17.882V9.351h2.637c0.891,0,1.567,0.198,2.03,0.595s0.694,0.978,0.694,1.743
		c0,0.434-0.096,0.807-0.287,1.119s-0.453,0.541-0.785,0.686c0.383,0.109,0.678,0.329,0.885,0.659s0.311,0.737,0.311,1.222
		c0,0.828-0.228,1.453-0.683,1.875s-1.114,0.633-1.978,0.633H23.061z M24.783,12.919h0.896c0.676,0,1.014-0.35,1.014-1.049
		c0-0.387-0.078-0.664-0.234-0.832s-0.41-0.252-0.762-0.252h-0.914V12.919z M24.783,14.173v2.279h1.102
		c0.309,0,0.543-0.096,0.703-0.287s0.24-0.463,0.24-0.814c0-0.766-0.277-1.158-0.832-1.178H24.783z"/>
	<path fill="#3A3E42" d="M33.865,16.136h-2.35l-0.457,1.746h-1.822l2.666-8.531h1.576l2.684,8.531h-1.84L33.865,16.136z
		 M31.891,14.7h1.594l-0.797-3.041L31.891,14.7z"/>
	<path fill="#3A3E42" d="M42.924,17.882h-1.723l-2.52-5.596v5.596h-1.723V9.351h1.723l2.525,5.602V9.351h1.717V17.882z"/>
	<path fill="#3A3E42" d="M46.709,14.589l-0.68,0.855v2.438h-1.723V9.351h1.723v3.721l0.545-0.92l1.588-2.801h2.109l-2.443,3.75
		l2.484,4.781h-2.045L46.709,14.589z"/>
	<path fill="#3A3E42" d="M52.744,17.882h-1.723V9.351h1.723V17.882z"/>
	<path fill="#3A3E42" d="M60.156,17.882h-1.723l-2.52-5.596v5.596h-1.723V9.351h1.723l2.525,5.602V9.351h1.717V17.882z"/>
	<path fill="#3A3E42" d="M67.34,16.915c-0.332,0.359-0.739,0.63-1.222,0.812s-1.011,0.272-1.585,0.272
		c-0.98,0-1.742-0.304-2.285-0.911s-0.822-1.491-0.838-2.651v-1.535c0-1.176,0.257-2.081,0.771-2.716s1.263-0.952,2.247-0.952
		c0.926,0,1.624,0.229,2.095,0.686s0.743,1.174,0.817,2.15h-1.676c-0.047-0.543-0.16-0.913-0.34-1.11s-0.461-0.296-0.844-0.296
		c-0.465,0-0.803,0.17-1.014,0.51s-0.32,0.881-0.328,1.623v1.547c0,0.777,0.116,1.343,0.349,1.696s0.614,0.53,1.146,0.53
		c0.34,0,0.615-0.068,0.826-0.205l0.152-0.105v-1.564h-1.207v-1.301h2.936V16.915z"/>
</g>
</svg>
