<?xml version="1.0" encoding="utf-8"?>
<!-- Generator: Adobe Illustrator 16.0.0, SVG Export Plug-In . SVG Version: 6.00 Build 0)  -->
<!DOCTYPE svg PUBLIC "-//W3C//DTD SVG 1.1//EN" "http://www.w3.org/Graphics/SVG/1.1/DTD/svg11.dtd">
<svg version="1.1" id="Capa_1" xmlns="http://www.w3.org/2000/svg" xmlns:xlink="http://www.w3.org/1999/xlink" x="0px" y="0px"
	 width="612px" height="792px" viewBox="0 0 612 792" enable-background="new 0 0 612 792" xml:space="preserve">
<g>
	<g>
		<path fill="#999999" d="M610.394,605.849l-95.625-143.438c-2.926-4.389-8.854-5.584-13.264-2.648
			c-4.397,2.937-5.584,8.864-2.647,13.265l85.719,128.566H27.425l85.718-128.559c2.936-4.398,1.75-10.327-2.649-13.264
			c-4.418-2.936-10.347-1.739-13.263,2.648L1.606,605.858c-1.951,2.927-2.142,6.702-0.478,9.812
			c1.664,3.107,4.906,5.049,8.434,5.049h592.875c3.527,0,6.771-1.951,8.435-5.059C612.535,612.553,612.345,608.785,610.394,605.849z
			"/>
	</g>
</g>
<g>
	<g>
		<path fill="#999999" d="M602.438,601.594H9.563c-5.288,0-9.563,4.274-9.563,9.563v38.25c0,5.288,4.274,9.563,9.563,9.563h592.875
			c5.288,0,9.563-4.273,9.563-9.563v-38.25C612,605.868,607.726,601.594,602.438,601.594z M592.875,639.844H19.125v-19.125h573.75
			V639.844z"/>
	</g>
</g>
<g>
	<g>
		<path fill="#999999" d="M148.438,497.334c-4.819-2.285-10.49-0.239-12.747,4.514L85.556,607.035
			c-2.276,4.771-0.249,10.479,4.514,12.746c1.338,0.641,2.735,0.938,4.112,0.938c3.576,0,7-2.008,8.635-5.45l50.136-105.188
			C155.228,505.309,153.201,499.601,148.438,497.334z"/>
	</g>
</g>
<g>
	<g>
		<path fill="#999999" d="M208.864,506.342c-5.021-1.443-10.375,1.474-11.819,6.561l-13.713,47.813
			c-1.453,5.068,1.482,10.366,6.56,11.819c0.87,0.249,1.76,0.373,2.639,0.373c4.15,0,7.985-2.727,9.18-6.934l13.712-47.813
			C216.877,513.093,213.942,507.795,208.864,506.342z"/>
	</g>
</g>
<g>
	<g>
		<path fill="#999999" d="M526.444,607.044l-18.245-38.269c-2.257-4.753-7.929-6.8-12.747-4.515
			c-4.762,2.268-6.789,7.977-4.515,12.747l18.245,38.27c1.637,3.434,5.06,5.44,8.637,5.44c1.377,0,2.771-0.297,4.11-0.928
			C526.693,617.525,528.721,611.816,526.444,607.044z"/>
	</g>
</g>
<g>
	<g>
		<path fill="#999999" d="M489.954,530.496l-31.882-66.891c-2.268-4.752-7.938-6.799-12.747-4.513
			c-4.762,2.267-6.789,7.976-4.513,12.746l31.881,66.89c1.636,3.435,5.059,5.441,8.635,5.441c1.377,0,2.772-0.296,4.112-0.928
			C490.202,540.977,492.229,535.269,489.954,530.496z"/>
	</g>
</g>
<g>
	<g>
		<path fill="#999999" d="M428.668,560.714l-13.713-47.813c-1.453-5.098-6.789-8.004-11.819-6.561
			c-5.087,1.453-8.014,6.751-6.56,11.819l13.713,47.813c1.204,4.207,5.02,6.934,9.18,6.934c0.88,0,1.77-0.124,2.64-0.373
			C427.195,571.08,430.121,565.782,428.668,560.714z"/>
	</g>
</g>
<g>
	<g>
		<path fill="#999999" d="M144.336,496.406H79.684c-5.288,0-9.563,4.273-9.563,9.563s4.275,9.563,9.563,9.563h64.652
			c5.278,0,9.563-4.274,9.563-9.563S149.625,496.406,144.336,496.406z"/>
	</g>
</g>
<g>
	<g>
		<path fill="#999999" d="M576.935,563.344h-77.352c-5.288,0-9.563,4.274-9.563,9.563s4.274,9.563,9.563,9.563h77.352
			c5.288,0,9.563-4.273,9.563-9.563S582.223,563.344,576.935,563.344z"/>
	</g>
</g>
<g>
	<g>
		<path fill="#999999" d="M551.44,525.094h-70.094c-5.288,0-9.563,4.274-9.563,9.563s4.273,9.563,9.563,9.563h70.094
			c5.288,0,9.563-4.273,9.563-9.563S556.729,525.094,551.44,525.094z"/>
	</g>
</g>
<g>
	<g>
		<path fill="#999999" d="M286.875,505.969h-80.65c-5.288,0-9.563,4.274-9.563,9.563s4.274,9.563,9.563,9.563h80.65
			c5.288,0,9.563-4.273,9.563-9.563S292.163,505.969,286.875,505.969z"/>
	</g>
</g>
<g>
	<g>
		<path fill="#999999" d="M405.775,505.969h-79.762c-5.288,0-9.563,4.274-9.563,9.563s4.273,9.563,9.563,9.563h79.762
			c5.277,0,9.563-4.273,9.563-9.563S411.063,505.969,405.775,505.969z"/>
	</g>
</g>
<g>
	<g>
		<path fill="#999999" d="M419.479,553.781H192.522c-5.288,0-9.563,4.273-9.563,9.563s4.274,9.563,9.563,9.563h226.957
			c5.288,0,9.563-4.274,9.563-9.563S424.767,553.781,419.479,553.781z"/>
	</g>
</g>
<g>
	<g>
		<path fill="#999999" d="M306,133.031c-84.36,0-153,68.64-153,153c0,125.833,140.712,250.565,146.698,255.815
			c1.798,1.577,4.055,2.371,6.302,2.371s4.504-0.794,6.302-2.371C318.288,536.598,459,411.864,459,286.031
			C459,201.671,390.36,133.031,306,133.031z M306,521.661c-27.311-25.79-133.875-132.986-133.875-235.63
			c0-73.822,60.053-133.875,133.875-133.875c73.822,0,133.875,60.053,133.875,133.875C439.875,388.675,333.311,495.88,306,521.661z"
			/>
	</g>
</g>
<g>
	<g>
		<path fill="#999999" d="M243.146,458.156H105.188c-5.288,0-9.563,4.273-9.563,9.563s4.274,9.563,9.563,9.563h137.958
			c5.279,0,9.563-4.274,9.563-9.563S248.434,458.156,243.146,458.156z"/>
	</g>
</g>
<g>
	<g>
		<path fill="#999999" d="M506.813,458.156H368.845c-5.288,0-9.563,4.273-9.563,9.563s4.273,9.563,9.563,9.563h137.968
			c5.288,0,9.563-4.274,9.563-9.563S512.101,458.156,506.813,458.156z"/>
	</g>
</g>
<g>
	<g>
		<path fill="#999999" d="M363.375,343.406h-114.75c-5.288,0-9.563,4.284-9.563,9.563c0,5.279,4.274,9.563,9.563,9.563h114.75
			c5.288,0,9.563-4.284,9.563-9.563C372.938,347.69,368.663,343.406,363.375,343.406z"/>
	</g>
</g>
<g>
	<g>
		<path fill="#999999" d="M258.188,228.656c-5.288,0-9.563,4.284-9.563,9.563v114.75c0,5.278,4.274,9.563,9.563,9.563
			s9.563-4.284,9.563-9.563v-114.75C267.75,232.94,263.476,228.656,258.188,228.656z"/>
	</g>
</g>
<g>
	<g>
		<path fill="#999999" d="M353.813,262.804c-5.287,0-9.563,4.284-9.563,9.563v80.603c0,5.278,4.274,9.563,9.563,9.563
			c5.289,0,9.563-4.284,9.563-9.563v-80.603C363.375,267.088,359.101,262.804,353.813,262.804z"/>
	</g>
</g>
<g>
	<g>
		<path fill="#999999" d="M313.784,232.663c-3.079-4.303-9.056-5.288-13.34-2.228l-66.938,47.813
			c-4.294,3.069-5.288,9.046-2.219,13.339c1.865,2.611,4.791,4.007,7.784,4.007c1.922,0,3.863-0.583,5.556-1.779l66.938-47.813
			C315.859,242.933,316.854,236.957,313.784,232.663z"/>
	</g>
</g>
<g>
	<g>
		<path fill="#999999" d="M378.503,278.248l-66.938-47.813c-4.294-3.06-10.271-2.066-13.34,2.228
			c-3.079,4.293-2.075,10.27,2.219,13.339l66.938,47.813c1.684,1.195,3.624,1.779,5.546,1.779c2.993,0,5.919-1.396,7.794-4.007
			C383.801,287.293,382.797,281.317,378.503,278.248z"/>
	</g>
</g>
<g>
	<g>
		<path fill="#999999" d="M306,314.719c-5.288,0-9.563,4.284-9.563,9.563v28.688c0,5.278,4.274,9.563,9.563,9.563
			s9.563-4.284,9.563-9.563v-28.688C315.563,319.003,311.288,314.719,306,314.719z"/>
	</g>
</g>
</svg>
