<?xml version="1.0" encoding="utf-8"?>
<!-- Generator: Adobe Illustrator 16.0.0, SVG Export Plug-In . SVG Version: 6.00 Build 0)  -->
<!DOCTYPE svg PUBLIC "-//W3C//DTD SVG 1.1//EN" "http://www.w3.org/Graphics/SVG/1.1/DTD/svg11.dtd">
<svg version="1.1" id="Layer_1" xmlns="http://www.w3.org/2000/svg" xmlns:xlink="http://www.w3.org/1999/xlink" x="0px" y="0px"
	 width="30px" height="29px" viewBox="0 0 30 29" enable-background="new 0 0 30 29" xml:space="preserve">
<g>
	<path fill="none" stroke="#FFFFFF" stroke-linecap="round" stroke-linejoin="round" stroke-miterlimit="10" d="M28.182,6.114
		c0.12-0.121,0.19-0.285,0.189-0.458c0-0.171-0.07-0.336-0.189-0.458l-3.279-3.278c-0.126-0.126-0.292-0.19-0.458-0.19
		c-0.166,0-0.332,0.063-0.457,0.19c0,0-12.206,12.206-12.214,12.213c-0.151,0.151-2.281,5.515-2.361,5.713
		c-0.098,0.241-0.042,0.516,0.142,0.7c0.182,0.183,0.458,0.24,0.7,0.143c0.189-0.076,5.57-2.215,5.712-2.362
		C16.056,18.239,28.093,6.203,28.182,6.114z"/>
	
		<line fill="none" stroke="#FFFFFF" stroke-linecap="round" stroke-linejoin="round" stroke-miterlimit="10" x1="25.378" y1="5.899" x2="14.45" y2="16.814"/>
	
		<line fill="none" stroke="#FFFFFF" stroke-linecap="round" stroke-linejoin="round" stroke-miterlimit="10" x1="11.773" y1="14.135" x2="15.967" y2="18.328"/>
	
		<line fill="none" stroke="#FFFFFF" stroke-linecap="round" stroke-linejoin="round" stroke-miterlimit="10" x1="9.8" y1="18.887" x2="11.22" y2="20.307"/>
	<path fill="none" stroke="#FFFFFF" stroke-linecap="round" stroke-linejoin="round" stroke-miterlimit="10" d="M23.5,14v9
		c0,0.884-0.27,1.5-1.153,1.5H7c-0.884,0-1.5-0.616-1.5-1.5V7.757C5.5,6.82,6.167,6.5,7.104,6.5H16"/>
</g>
</svg>
