<?xml version="1.0" encoding="utf-8"?>
<!-- Generator: Adobe Illustrator 16.0.0, SVG Export Plug-In . SVG Version: 6.00 Build 0)  -->
<!DOCTYPE svg PUBLIC "-//W3C//DTD SVG 1.1//EN" "http://www.w3.org/Graphics/SVG/1.1/DTD/svg11.dtd">
<svg version="1.1" id="Capa_1" xmlns="http://www.w3.org/2000/svg" xmlns:xlink="http://www.w3.org/1999/xlink" x="0px" y="0px"
	 width="16px" height="16px" viewBox="272.833 434.938 16 16" enable-background="new 272.833 434.938 16 16" xml:space="preserve">
<g>
	<g>
		<path fill="#FFFFFF" d="M273.407,435.485c-0.171,0.173-0.171,0.451,0.001,0.623l6.188,6.169c0.172,0.172,0.452,0.172,0.623,0
			c0.086-0.086,0.129-0.199,0.129-0.314c-0.001-0.113-0.044-0.226-0.129-0.31l-6.187-6.171
			C273.86,435.313,273.58,435.313,273.407,435.485z"/>
	</g>
</g>
<g>
	<g>
		<path fill="#FFFFFF" d="M273.278,435.798c0.001,0.242,0.199,0.439,0.442,0.439l5.295-0.007c0.244-0.002,0.441-0.199,0.441-0.442
			c0-0.245-0.197-0.442-0.442-0.442l-5.296,0.009C273.476,435.354,273.278,435.553,273.278,435.798z"/>
	</g>
</g>
<g>
	<g>
		<path fill="#FFFFFF" d="M273.278,435.798l0.007,5.295c0.001,0.242,0.2,0.439,0.442,0.439c0.244,0,0.441-0.197,0.441-0.441
			l-0.008-5.296c-0.001-0.244-0.199-0.44-0.442-0.44C273.475,435.354,273.278,435.553,273.278,435.798z"/>
	</g>
</g>
<g>
	<g>
		<path fill="#FFFFFF" d="M281.363,443.416c-0.172,0.173-0.172,0.453,0.001,0.626l6.187,6.169c0.172,0.169,0.452,0.169,0.624-0.003
			c0.086-0.086,0.129-0.199,0.129-0.313c0-0.112-0.044-0.225-0.129-0.311l-6.188-6.169
			C281.815,443.243,281.535,443.243,281.363,443.416z"/>
	</g>
</g>
<g>
	<g>
		<path fill="#FFFFFF" d="M282.125,449.905c0,0.243,0.197,0.441,0.442,0.44l5.295-0.007c0.243,0,0.441-0.199,0.441-0.443
			c-0.001-0.242-0.199-0.441-0.442-0.439l-5.297,0.007C282.322,449.463,282.125,449.662,282.125,449.905z"/>
	</g>
</g>
<g>
	<g>
		<path fill="#FFFFFF" d="M287.413,444.601l0.007,5.295c0.001,0.247,0.199,0.443,0.442,0.443s0.441-0.199,0.441-0.443l-0.007-5.295
			c-0.001-0.242-0.2-0.442-0.443-0.442C287.611,444.161,287.413,444.358,287.413,444.601z"/>
	</g>
</g>
</svg>
