<?xml version="1.0" encoding="utf-8"?>
<!-- Generator: Adobe Illustrator 16.0.0, SVG Export Plug-In . SVG Version: 6.00 Build 0)  -->
<!DOCTYPE svg PUBLIC "-//W3C//DTD SVG 1.1//EN" "http://www.w3.org/Graphics/SVG/1.1/DTD/svg11.dtd">
<svg version="1.1" id="Layer_1" xmlns="http://www.w3.org/2000/svg" xmlns:xlink="http://www.w3.org/1999/xlink" x="0px" y="0px"
	 width="751px" height="165px" viewBox="0 0 751 165" enable-background="new 0 0 751 165" xml:space="preserve">
<g>
	<path fill="#F0F2F5" d="M276.226,107.676C311.223,62.134,351.726,25.883,394.151,0h-86.033
		c-23.064,21.464-44.479,46.163-63.476,73.878c-19.193-21.056-37.675-42.18-55.404-63.282C192.348,7.02,195.543,3.49,198.807,0
		H40.545C19.629,46.794,8,98.598,8,153.104c0,3.98,0.069,7.945,0.193,11.896h44.062C54.598,106.545,71.88,52.326,100.544,5.526
		c8.058,8.362,16.259,16.725,24.601,25.083C104.391,73.333,92.577,119.105,89.716,165h18.455
		c9.236-36.75,24.414-72.754,45.474-106.391c15.806,15.228,32.056,30.408,48.751,45.49c5.195,4.698,10.385,9.329,15.569,13.908
		C209.78,133.49,202.67,149.197,196.592,165h41.545c3.722-6.539,7.616-13.045,11.696-19.504
		c7.883,6.638,15.742,13.128,23.581,19.504h60.499C314.789,146.851,295.533,127.783,276.226,107.676z"/>
	<path fill="#F0F2F5" d="M674.215,0c18.828,16.668,34.272,37.552,46.141,61.32c-50.993-47.225-131.623-50.772-212.112-17.23
		C501.768,29.657,494.905,14.965,487.653,0h-46.878c9.211,15.274,18.483,31.215,27.893,47.965c2.249,4.006,4.458,7.983,6.636,11.938
		c-35.549,19.385-70.262,45.932-101.512,79.068c-8.008,8.488-15.562,17.181-22.671,26.028h49.017
		c29.515-26.123,63.58-47.007,98.471-61.137c10.688,20.99,20.384,41.308,29.279,61.137h27.911
		c-7.78-23.283-16.595-47.15-26.55-71.736c63.109-18.113,125.364-12.898,165.005,24.526c14.138,13.335,24.798,29.328,32.113,47.21
		H751V31.394C747.068,20.717,742.566,10.237,737.5,0H674.215z"/>
</g>
</svg>
