<?xml version="1.0" encoding="utf-8"?>
<!-- Generator: Adobe Illustrator 16.0.0, SVG Export Plug-In . SVG Version: 6.00 Build 0)  -->
<!DOCTYPE svg PUBLIC "-//W3C//DTD SVG 1.1//EN" "http://www.w3.org/Graphics/SVG/1.1/DTD/svg11.dtd">
<svg version="1.1" id="Capa_1" xmlns="http://www.w3.org/2000/svg" xmlns:xlink="http://www.w3.org/1999/xlink" x="0px" y="0px"
	 width="561px" height="561px" viewBox="199.5 -0.5 561 561" enable-background="new 199.5 -0.5 561 561" xml:space="preserve">
<g>
	<path fill="#FFFFFF" d="M625.255,272.291l-205.334-140c-2.865-1.941-6.561-2.156-9.622-0.541c-3.052,1.615-4.966,4.788-4.966,8.25
		v280c0,3.463,1.914,6.636,4.975,8.251c1.363,0.728,2.866,1.082,4.359,1.082c1.838,0,3.677-0.551,5.254-1.624l205.334-140
		c2.548-1.736,4.078-4.619,4.078-7.709C629.333,276.911,627.803,274.027,625.255,272.291z M424,402.332V157.668L603.434,280
		L424,402.332z"/>
	<path fill="#FFFFFF" d="M480,0C325.608,0,200,125.608,200,280c0,154.392,125.608,280,280,280c154.392,0,280-125.608,280-280
		C760,125.608,634.392,0,480,0z M480,541.333c-144.097,0-261.333-117.235-261.333-261.333
		c0-144.097,117.236-261.333,261.333-261.333c144.098,0,261.333,117.236,261.333,261.333
		C741.333,424.098,624.098,541.333,480,541.333z"/>
</g>
</svg>
