<?xml version="1.0" encoding="utf-8"?>
<!-- Generator: Adobe Illustrator 16.0.0, SVG Export Plug-In . SVG Version: 6.00 Build 0)  -->
<!DOCTYPE svg PUBLIC "-//W3C//DTD SVG 1.1//EN" "http://www.w3.org/Graphics/SVG/1.1/DTD/svg11.dtd">
<svg version="1.1" id="Layer_1" xmlns="http://www.w3.org/2000/svg" xmlns:xlink="http://www.w3.org/1999/xlink" x="0px" y="0px"
	 width="20px" height="20px" viewBox="0 0 20 20" enable-background="new 0 0 20 20" xml:space="preserve">
<path fill="#727272" d="M10.024,11.778c-1.005,0-1.815-0.813-1.817-1.815C8.209,8.96,9.02,8.147,10.024,8.147
	c1,0,1.814,0.813,1.814,1.815C11.84,10.965,11.024,11.778,10.024,11.778"/>
<path fill="#727272" d="M9.999,0C4.478,0,0,4.479,0,10c0,5.522,4.478,10,9.999,10C15.523,20,20,15.522,20,10
	C20,4.479,15.523,0,9.999,0 M9.999,2.742c2.204,0,4.174,0.981,5.502,2.526l-2.422,1.401c-0.81-0.747-1.893-1.207-3.08-1.207
	c-2.504,0-4.535,2.032-4.535,4.538c0,0.344,0.039,0.679,0.113,1l-2.428,1.401C2.885,11.649,2.741,10.843,2.741,10
	C2.741,5.99,5.992,2.742,9.999,2.742 M6.825,10c0-1.753,1.421-3.176,3.174-3.176c1.756,0,3.177,1.423,3.177,3.176
	c0,1.754-1.421,3.172-3.177,3.172C8.246,13.172,6.825,11.754,6.825,10 M9.999,17.259c-2.188,0-4.149-0.97-5.48-2.505l2.426-1.401
	c0.807,0.735,1.877,1.187,3.055,1.187c2.507,0,4.541-2.034,4.541-4.538c0-0.332-0.04-0.656-0.105-0.967l2.429-1.407
	c0.256,0.747,0.396,1.545,0.396,2.374C17.258,14.01,14.01,17.259,9.999,17.259"/>
</svg>
