<?xml version="1.0" encoding="utf-8"?>
<!-- Generator: Adobe Illustrator 16.0.0, SVG Export Plug-In . SVG Version: 6.00 Build 0)  -->
<!DOCTYPE svg PUBLIC "-//W3C//DTD SVG 1.1//EN" "http://www.w3.org/Graphics/SVG/1.1/DTD/svg11.dtd">
<svg version="1.1" id="Layer_1" xmlns="http://www.w3.org/2000/svg" xmlns:xlink="http://www.w3.org/1999/xlink" x="0px" y="0px"
	 width="29.417px" height="40.375px" viewBox="0 0 29.417 40.375" enable-background="new 0 0 29.417 40.375" xml:space="preserve">
<g>
	<polyline fill="none" stroke="#E6000F" stroke-linecap="round" stroke-linejoin="round" stroke-miterlimit="10" points="
		21.917,1.958 21.917,7.958 27.917,7.958 	"/>
	<path fill="none" stroke="#E6000F" stroke-linecap="round" stroke-linejoin="round" stroke-miterlimit="10" d="M27.917,37.958
		c0,0.701-0.295,1-1,1h-24c-0.702,0-1-0.299-1-1v-35c0-0.701,0.298-1,1-1h19c0.332,0,1.763,0.765,2,1l4,4c0.244,0.238,0,0.659,0,1
		V37.958z"/>
</g>
<line fill="none" stroke="#E6000F" stroke-linecap="round" stroke-linejoin="round" stroke-miterlimit="10" x1="22.917" y1="27.958" x2="6.917" y2="27.958"/>
<line fill="none" stroke="#E6000F" stroke-linecap="round" stroke-linejoin="round" stroke-miterlimit="10" x1="22.917" y1="12.958" x2="6.917" y2="12.958"/>
<line fill="none" stroke="#E6000F" stroke-linecap="round" stroke-linejoin="round" stroke-miterlimit="10" x1="20.917" y1="17.958" x2="6.917" y2="17.958"/>
<line fill="none" stroke="#E6000F" stroke-linecap="round" stroke-linejoin="round" stroke-miterlimit="10" x1="18.917" y1="22.958" x2="6.917" y2="22.958"/>
</svg>
