<?xml version="1.0" encoding="utf-8"?>
<!-- Generator: Adobe Illustrator 16.0.0, SVG Export Plug-In . SVG Version: 6.00 Build 0)  -->
<!DOCTYPE svg PUBLIC "-//W3C//DTD SVG 1.1//EN" "http://www.w3.org/Graphics/SVG/1.1/DTD/svg11.dtd">
<svg version="1.1" id="Capa_1" xmlns="http://www.w3.org/2000/svg" xmlns:xlink="http://www.w3.org/1999/xlink" x="0px" y="0px"
	 width="17px" height="15px" viewBox="7.41 541.701 17 15" enable-background="new 7.41 541.701 17 15" xml:space="preserve">
<g>
	<path fill="#FFFFFF" d="M23.047,544.623c-0.29-0.115-0.637,0.059-0.753,0.348l-0.348,0.928c-1.217-2.145-3.534-3.593-6.084-3.593
		c-3.071,0-5.736,2.028-6.663,4.983c-0.116,0.289,0.058,0.637,0.405,0.695c0.058,0,0.116,0,0.174,0c0.232,0,0.464-0.174,0.58-0.406
		c0.753-2.491,2.955-4.172,5.504-4.172c2.086,0,4.056,1.217,5.041,3.014l-0.927-0.348c-0.29-0.116-0.638,0.058-0.753,0.348
		c-0.116,0.289,0.058,0.637,0.348,0.753l2.723,0.985l1.101-2.781C23.453,545.087,23.337,544.739,23.047,544.623z"/>
	<path fill="#FFFFFF" d="M22.12,550.418c-0.29-0.116-0.637,0.058-0.695,0.405c-0.753,2.491-2.955,4.172-5.504,4.172
		c-2.086,0-3.998-1.159-4.983-2.955l0.927,0.348c0.29,0.116,0.638,0,0.753-0.348s0-0.638-0.348-0.753l-2.723-1.102l-1.101,2.781
		c-0.116,0.29,0.058,0.638,0.348,0.754c0.058,0,0.116,0.058,0.232,0.058c0.231,0,0.463-0.116,0.521-0.348l0.348-0.927
		c1.217,2.144,3.534,3.592,6.084,3.592c3.071,0,5.736-2.028,6.663-4.982C22.584,550.823,22.41,550.533,22.12,550.418z"/>
</g>
</svg>
