<svg xmlns="http://www.w3.org/2000/svg" width="1205.23" height="453" viewBox="0 0 1205.23 453">
  <path id="Intersection_5" data-name="Intersection 5" d="M-1218.655,642.3c-6.788-56.913-29.319-107.32-68.536-144.791-63.405-60.581-162.956-69.054-263.881-39.72a1909.775,1909.775,0,0,1,63.5,184.511h-36.85c-21.5-53.545-46.252-108.844-75.651-167.342-71.1,29.162-140.05,76.1-194.534,135.74q-6.9,7.552-13.479,15.225,9.057,8.271,18.079,16.376h-93.674q1.514-2.486,3.051-4.962-58-44.472-117.33-94.908a788.807,788.807,0,0,0-52.816,99.869h-54.238a693.609,693.609,0,0,1,56.095-144.394q-12.44-11.132-24.909-22.554-40.023-36.659-77.953-73.7c-46.49,75.215-75.068,157.727-85.458,240.648h-16.994A585.561,585.561,0,0,1-2197.4,356.262q-20-20.3-39.319-40.6c-49.391,81.7-77.667,177.368-77.667,280.532q0,23.285,1.907,46.106h-66.078a620.631,620.631,0,0,1-6.176-87.542A611.566,611.566,0,0,1-2265.136,190.3h132.66q-20.261,18.091-38.64,38.045,13.913,18.151,28.313,36.372a594.963,594.963,0,0,1,53.995-64.245q4.995-5.158,10.09-10.172h145.226a606.977,606.977,0,0,0-136,105.738q-13.2,13.635-25.394,27.849,42.535,51.284,88.622,102.539c67.885-100.371,155.069-176.434,247.991-223.826q-4.162-6.194-8.333-12.3h477.366a613.11,613.11,0,0,1,39.5,60.712c32.1,48.79,55.03,102.372,69.24,158.3V642.3Zm-737.106-161.15q54.316,57.293,108.092,107.977a700.124,700.124,0,0,1,47.916-57.275c50-53.708,105.512-96.728,162.388-128.143q-5.219-9.6-10.6-19.312c-21.344-38.493-42.269-74.415-63.078-108.256C-1799,317.679-1884.529,387.256-1955.761,481.149Zm535.4-139.009c67.687,0,128.856,20.639,174.9,63.829-24.218-49.145-57.732-90.7-99.962-120.134-84.944-59.206-192.027-68.783-299.807-35.406q4.668,9.3,9.433,18.909,27.729,55.913,51.109,108.729c56.03-23.651,112.113-35.926,164.3-35.927ZM-1479.645,642.3a267.531,267.531,0,0,1,68.653-9.463c21.767,0,42.408,3.127,61.218,9.463Z" transform="translate(2385.23 -189.8)" fill="#fff" stroke="rgba(0,0,0,0)" stroke-miterlimit="10" stroke-width="1" opacity="0.205"/>
</svg>
